<svg id="visual" viewBox="0 0 900 600" width="900" height="600" xmlns="http://www.w3.org/2000/svg" xmlns:xlink="http://www.w3.org/1999/xlink" version="1.1"><rect x="0" y="0" width="900" height="600" fill="#fff"></rect><path d="M0 160L47 160L47 138L95 138L95 97L142 97L142 181L189 181L189 155L237 155L237 103L284 103L284 107L332 107L332 199L379 199L379 146L426 146L426 206L474 206L474 117L521 117L521 102L568 102L568 177L616 177L616 137L663 137L663 185L711 185L711 111L758 111L758 168L805 168L805 190L853 190L853 184L900 184L900 110L900 0L900 0L853 0L853 0L805 0L805 0L758 0L758 0L711 0L711 0L663 0L663 0L616 0L616 0L568 0L568 0L521 0L521 0L474 0L474 0L426 0L426 0L379 0L379 0L332 0L332 0L284 0L284 0L237 0L237 0L189 0L189 0L142 0L142 0L95 0L95 0L47 0L47 0L0 0Z" fill="#E6CA31" stroke-linecap="square" stroke-linejoin="miter"></path></svg>