<svg id="visual" viewBox="0 0 900 600" width="900" height="600" xmlns="http://www.w3.org/2000/svg" xmlns:xlink="http://www.w3.org/1999/xlink" version="1.1"><rect x="0" y="0" width="900" height="600" fill="#fff"></rect><path d="M423 0L428 0L428 60L261 60L261 120L401 120L401 180L180 180L180 240L226 240L226 300L156 300L156 360L329 360L329 420L450 420L450 480L204 480L204 540L494 540L494 600L0 600L0 540L0 540L0 480L0 480L0 420L0 420L0 360L0 360L0 300L0 300L0 240L0 240L0 180L0 180L0 120L0 120L0 60L0 60L0 0L0 0Z" fill="#E6CA31" stroke-linecap="square" stroke-linejoin="miter"></path></svg>