<svg id="visual" viewBox="0 0 900 600" width="900" height="600" xmlns="http://www.w3.org/2000/svg" xmlns:xlink="http://www.w3.org/1999/xlink" version="1.1"><rect x="0" y="0" width="900" height="600" fill="#fff"></rect><path d="M0 397L90 397L90 564L180 564L180 439L270 439L270 536L360 536L360 392L450 392L450 461L540 461L540 386L630 386L630 549L720 549L720 397L810 397L810 440L900 440L900 541L900 601L900 601L810 601L810 601L720 601L720 601L630 601L630 601L540 601L540 601L450 601L450 601L360 601L360 601L270 601L270 601L180 601L180 601L90 601L90 601L0 601Z" fill="#E32512" stroke-linecap="square" stroke-linejoin="miter"></path></svg>