<svg id="visual" viewBox="0 0 900 600" width="900" height="600" xmlns="http://www.w3.org/2000/svg" xmlns:xlink="http://www.w3.org/1999/xlink" version="1.1"><rect x="0" y="0" width="900" height="600" fill="#fff"></rect><path d="M479 600L474 600L474 540L641 540L641 480L501 480L501 420L722 420L722 360L676 360L676 300L746 300L746 240L573 240L573 180L452 180L452 120L698 120L698 60L408 60L408 0L900 0L900 60L900 60L900 120L900 120L900 180L900 180L900 240L900 240L900 300L900 300L900 360L900 360L900 420L900 420L900 480L900 480L900 540L900 540L900 600L900 600Z" fill="#E6CA31" stroke-linecap="square" stroke-linejoin="miter"></path></svg>